<svg xmlns="http://www.w3.org/2000/svg" style="isolation:isolate" viewBox="0 0 560 315">
    <defs>
        <clipPath id="_clipPath_WJkRtxEHLGJ0x4X0wPSY9jTXbaWRTX2K">
            <rect width="560" height="315"/>
        </clipPath>
    </defs>
    <g clip-path="url(#_clipPath_WJkRtxEHLGJ0x4X0wPSY9jTXbaWRTX2K)">
        <rect width="559.467" height="23.65" y="291.35" fill="#0E3B6B"/>
        <rect width="559.467" height="23.65" y="272.7" fill="#0D3560"/>
        <linearGradient id="_lgradient_6" x1=".0051" x2=".7193" y1=".9895" y2=".2636" gradientTransform="matrix(559.467 0 0 23.65 0 255.221)" gradientUnits="userSpaceOnUse">
            <stop offset="0%" stop-color="#0b2b4d"/>
            <stop offset="98.6957%" stop-color="#37404a"/>
        </linearGradient>
        <rect width="559.467" height="23.65" y="255.221" fill="url(#_lgradient_6)"/>
        <linearGradient id="_lgradient_7" x1=".0051" x2=".7193" y1=".9895" y2=".2636" gradientTransform="matrix(559.467 0 0 23.65 0 236.221)" gradientUnits="userSpaceOnUse">
            <stop offset="0%" stop-color="#071d32"/>
            <stop offset="98.6957%" stop-color="#37404a"/>
        </linearGradient>
        <rect width="559.467" height="23.65" y="236.221" fill="url(#_lgradient_7)"/>
        <linearGradient id="_lgradient_8" x1=".4236" x2=".7163" y1=".1343" y2=".8936" gradientTransform="matrix(562.363 0 0 131.934 0 118.981)" gradientUnits="userSpaceOnUse">
            <stop offset="0%" stop-color="#7a7a7a"/>
            <stop offset="97.8261%" stop-color="#dbdbdb"/>
        </linearGradient>
        <path fill="url(#_lgradient_8)" d="M0 249.595c75.094 3.482 131.219.082 168.346-10.231 29.852-4.384 63.483-2.687 100.863 5.059 63.569-10.806 105.424-15.105 125.534-12.928h165.449l2.171-112.514c-42.288 6.541-73.964 17.677-95.057 33.379-25.013 8.239-41.208 6.556-48.618-5.079-4.563-10.451-10.6-16.246-18.14-17.415-22.615-2.561-65.659 3.254-129.162 17.415-28.058 2.936-121.441-19.232-130.421-17.415q-8.98 1.816-49.723 33.966c-14.919-18.228-31.052-26.88-48.43-25.984-14.189 4.961-28.208 14.646-42.086 29.025L0 249.595z"/>
        <linearGradient id="_lgradient_9" x1=".4236" x2=".7163" y1=".1343" y2=".8936" gradientTransform="matrix(562.363 0 0 131.934 -.726 114.287)" gradientUnits="userSpaceOnUse">
            <stop offset="0%" stop-color="#e6e6e6"/>
            <stop offset="97.8261%" stop-color="#dbdbdb"/>
        </linearGradient>
        <path fill="url(#_lgradient_9)" d="M-.726 244.9c75.094 3.482 131.22.082 168.347-10.231 29.851-4.383 63.482-2.687 100.862 5.059 63.569-10.805 105.424-15.105 125.534-12.928h165.45l2.171-112.513c-42.288 6.54-73.964 17.676-95.058 33.379-25.012 8.239-41.208 6.555-48.617-5.08-4.564-10.451-10.601-16.246-18.141-17.415-22.614-2.561-65.658 3.254-129.162 17.415-28.057 2.936-121.441-19.231-130.42-17.415q-8.98 1.817-49.724 33.966c-14.919-18.228-31.052-26.879-48.429-25.984-14.19 4.961-28.209 14.646-42.087 29.025L-.726 244.9z"/>
        <linearGradient id="_lgradient_10" x1=".6644" x2=".3159" y1=".1552" y2="1.1101" gradientTransform="matrix(462.515 0 0 109.087 99.704 205.913)" gradientUnits="userSpaceOnUse">
            <stop offset="0%" stop-color="#b1b1b1"/>
            <stop offset="97.3913%" stop-color="#bcbcbc"/>
        </linearGradient>
        <path fill="url(#_lgradient_10)" d="M562.219 205.913l-59.805 8.432-94.688 16.3-63.316 7.869-82.709 5.059-43.352 11.804c-49.347-2.436-76.526.571-81.568 8.993 7.102 5.609 13.957 7.867 20.535 6.745-20.155-1.312-32.694.759-37.647 6.183 11.829 6.904 29.902 11.598 54.188 14.052-38.899-2.338-63.607.857-74.153 9.555 12.739 6.933 25.108 11.252 37.077 12.928 19.172 2.401 108.356 1.1 267.522-3.934.87-6.033-1.212-11.269-6.274-15.739 11.067 1.07 31.992-.793 62.745-5.621 24.385 4.532 54.817 6.415 91.265 5.621l10.18-2.81v-85.437z"/>
        <linearGradient id="_lgradient_11" x1=".6644" x2=".3159" y1=".1552" y2="1.1101" gradientTransform="matrix(455.763 0 0 109.087 103.704 202.069)" gradientUnits="userSpaceOnUse">
            <stop offset="0%" stop-color="#f3f3f3"/>
            <stop offset="96.9565%" stop-color="#d1d1d1"/>
        </linearGradient>
        <path fill="url(#_lgradient_11)" d="M559.467 202.069l-58.933 8.431-93.305 16.3-62.392 7.869-81.501 5.059-42.719 11.804c-48.627-2.436-75.409.571-80.377 8.993 6.998 5.609 13.753 7.867 20.234 6.745-19.86-1.311-32.216.76-37.097 6.183 11.657 6.904 29.466 11.598 53.398 14.052-38.332-2.338-62.679.858-73.071 9.555 12.553 6.933 24.742 11.252 36.536 12.928 18.891 2.401 106.774 1.1 263.616-3.934.857-6.033-1.194-11.269-6.183-15.739 10.906 1.07 31.526-.793 61.829-5.62 24.03 4.531 54.018 6.414 89.933 5.62l10.032-2.81v-85.436z"/>
        <path fill="#D1D1D1" d="M20.428 177.385c5.46 2.97 12.053 5.249 19.748 6.81 13.769 2.047 26.036-.212 36.77-6.81 7.357 5.037 28.877 9.357 30.643 6.81 1.765-2.547 20.805-8.485 42.899-9.533l54.476-6.129q-59.408 2.703-76.266 2.043-16.857-.66-24.994 4.086c-29.258.89-47.01 1.818-53.314 2.723-5.794 2.218-15.771 2.228-29.962 0z"/>
        <g fill="#CFCFCF">
            <path d="M553.742 153.997c-22.501 6.115-49.629 7.417-81.414 3.876 21.971 8.534 39.643 11.544 52.984 9 9.701-1.914 19.187-6.196 28.43-12.876zM407.229 205.913c-10.633-6.793-23.48-4.908-38.576 5.62-13.193.549-27.471-.031-42.838-1.743 24.852 4.128 42.533 7.147 52.983 9 6.786-4.641 16.283-8.913 28.431-12.877zM412.375 168.533c-11.622 3.159-24.479 5.034-38.575 5.62-13.193.549-27.471-.031-42.838-1.743 22.277 10.437 39.968 13.467 52.983 9 6.786-4.641 16.283-8.913 28.43-12.877zM274.219 212.352c-9.317 2.532-13.456-3.441-24.362-2.562-2.698.218-11.417 8.065-14.213 8.181-13.193.549-27.472-.031-42.839-1.743 24.853 4.128 42.534 7.148 52.984 9 6.786-4.641 16.282-8.913 28.43-12.876zM559.467 259.823c-11.623 3.159-24.48 5.034-38.576 5.62-15.145-10.078-29.413-10.648-42.838-1.743 24.852 4.128 42.534 7.147 52.984 9 6.785-4.641 16.282-8.913 28.43-12.877zM391.441 275.097c-10.627-3.293-23.474-1.408-38.576 5.62-15.145-10.079-29.413-10.649-42.838-1.743 26.469 8.059 37.698 13.222 46.521 11.133 6.786-4.641 22.745-11.047 34.893-15.01z"/>
        </g>
        <g style="isolation:isolate">
            <path fill="#FFF" stroke="#000" stroke-linecap="square" stroke-miterlimit="3" stroke-width=".5" d="M307 110c.918-1.869 3.928-2.526 9-2 5.624-.636 8.967.041 10 2 2.493-1.772 4.17-2.096 5-1 2.754.91 2.097 4.253-2 10 .557 5.874.234 9.551-1 11-.496 6.036-.486 9.712 0 11 2.388.811 10.797 17.891 11 19 .203 1.109 11.577 2.651 11 6-.087 3.535.303 8.533-2 13-1.017 1.138-3.068 2.273-5 5-.363 1.902-9.176.204-10 0 .109 1.234 1.02 18.705-6 38 3.717 6.328 3.586 17.272 1 32.82-1.048 6.303-1.913 14.364-4 22.18 2.51 2.019 8.915 9.336 8 11-.915 1.664-22.605-4.719-23-6-.395-1.281.282-8.937 2-23-2.419-2.809-4.076-4.313-5-4.18-.381-.6-1.037-.743-2-.82-1.207-.397-3.197.613-6 3-4.275 10.76-.317 23.234 1 26 1.317 2.766-17.489 1.945-18 1-.511-.945.348-4.155 1-10q-.391-11.78-2-37c-.447-1.003-1.017-5.722 1.327-12.641 2.719-10.165 5.287-24.274 7.673-38.359-9.063-4.359-12.932-10.006-11.666-21-2.933-1.557-6.889-6.502-6.334-10 .555-3.498 4.679-6.006 7-7 2.695-1.014 5.371-.337 8 2 2.098 2.523 2.24 5.877 1 9 .204.796.75 1.131 1 2l2-1c2.531-9.279 4.551-15.593 8-17 1.861-7.513 2.871-13.503 3-18 .106-1.882.783-3.872 2-6-3.313-5.261-3.97-8.584-2-10 2.483-1.791 4.493-1.448 6 1z" vector-effect="non-scaling-stroke"/>
            <path fill="#D1D1D1" d="M301 170c3.63 1.212 6.306 3.889 8 8-6.769 8.456-12.426 12.466-17 12 5.441-6.472 8.451-13.128 9-20zM338 164c-.75-.54-4.043.069-4-1 .043-1.069-10.334 8.685-9 13 1.334 4.315 4.615 8.548 7 9 .661-.298 1.681-.612 3-1-1.409-1.008-2.733-2.998-4-6 .844-3.221 3.899-10.17 7-14zM291 164c1.406 1.357 2.75 2.034 4 2 .351 2.556.027 3.566-1 3-1.604-1.479-2.594-3.135-3-5z"/>
            <g stroke="#000" stroke-miterlimit="3" stroke-width=".25">
                <path stroke-linecap="square" d="M280 152c.252.166 1.305-.719 1-1-.305-.281-1.446-.484-2-1 .135 1.449.478 2.125 1 2zM283.234 152c.606-.041 1.204-.364 1.766-1 .127-.211-.52-.858-2-2-.478 2.144-.39 3.154.234 3zM274 159c.942.384 1.618.06 2-1-.265-.452-.588-.775-1-1-.637-.313-1.294-.303-2 0 .114.806.457 1.483 1 2zM276 155c.409.123 2.238-.88 2-1s-1.497-1.004-2-2c-.405.923-.409 2.877 0 3z" vector-effect="non-scaling-stroke"/>
                <path d="M278.436 162c-.782.157-.604-2.318-.436-3 .168-.682.345-2.067 2.285-3.355.952-.632 2.008.022 2.949 0 1.415.081 2.31-.529 2.638.188.576 1.255-3.076 2.78-3.872 3.167-.796.387-2.345 2.755-3.564 3z" vector-effect="non-scaling-stroke"/>
            </g>
            <g stroke="#000" stroke-linecap="square" stroke-miterlimit="3" stroke-width=".25">
                <path d="M341 180c-.577 1.015-1.234 1.692-2 2-.766.308-.163.674 0 1 .163.326 1.742-.584 2-1 .258-.416.577-3.015 0-2zM335 175c-.462.481-.786 1.158-1 2 .607-.255.603-.072 1-1s.32-.471 0-1zM336 178c-.241.042-.84 1.191-1 2-.16.809-.067.8 0 1 .067.2.923.166 1 0 .077-.166.813 1.945 1 2 .187.055 1.946-1.658 2-2 .054-.342-.842-2.159-1-2-.158.159-.96.324-2 0 .417-.318.241-1.042 0-1z" vector-effect="non-scaling-stroke"/>
            </g>
            <path fill="#898989" d="M303.775 114.081l-.919.919c-1.292-1.511-1.589-3.034-.92-4.596l3.677 1.193c-.986.551-1.59 1.388-1.838 2.484zM328.429 114.879l.672 1.152c1.535-1.372 2.135-2.942 1.834-4.734l-3.715.59c.813.771 1.206 1.777 1.209 2.992z"/>
            <path stroke="#000" stroke-linecap="square" stroke-miterlimit="3" stroke-width=".25" d="M327 112c.91 1.16 1.253 2.17 1 3 .72-2.53 1.73-3.187 3-4-.917-1.052-2.24-.709-4 1zM306 111.298c-1.141.624-2.166 1.959-2 2.702-.72-2.53-.73-2.889-2-3.702.917-1.052 2.24-.708 4 1zM315 118c.565-.565.977-1.07 2-1 1.023.07 2.445.43 3 1 .555.57.633 1.295 1 2 .367.705-.29 1.715-2 3 .277.975.953 1.318 2 1-1.209.455-2.199 1.132-3 2-1.019-.755-2.675-1.412-5-2 1.154-.171 1.831-.495 2-1l-1-3q.435-1.435 1-2z" vector-effect="non-scaling-stroke"/>
            <path d="M310 114c0-.552.672-1 1.5-1s1.5.448 1.5 1-.672 1-1.5 1-1.5-.448-1.5-1zM321 114c0-.552.672-1 1.5-1s1.5.448 1.5 1-.672 1-1.5 1-1.5-.448-1.5-1z"/>
            <path fill="#D1D1D1" d="M307 144c4.466.426 8.507-1.6 8-7-.147 5.626 6.633 6.502 8 7 1.367.498-5.32 3.424-8 3-5.161.648-12.466-3.426-8-3zM297 214c5.351 14.584 7.273 16.831 9 21 1.727 4.169 9.189-1.936 14-9s-.232 11.134-1 12c-.768.866-5.784 2.471-8 5s-2.986 2.68-3 5c-.014 2.32-6.414-11.017-10-24q-3.586-12.983-1-10z"/>
        </g>
        <path fill="#B1B1B1" fill-rule="evenodd" d="M318.145 39.811q-2.551.094-4.291 1.008V63.295q-.143 2.696.215 4.618-.405 2.156 0 3.609l-.215.609.215 2.391q-.667 4.781.191 8.039l1.835.398q.31-.211.62-.211.667-.093 1.239 0 1.931-.234 3.456.211l.62-.398v-.609l.191-.61q-.239-3.047 0-5.015-.358-1.594-.191-2.789v-7.641q1.525.094 1.835-1.195V59.873q-.453-.585-.619-1.195-.62.047-1.216-.211l.191-1.406q.119-1.594-.191-2.789.048-.516 0-.82l.191-.586q-.358-1.453 0-2.625-.406-1.946-.191-3.399V44.217l-.215-4.008q-2.24-.398-3.67-.398zm11.441.398q-.62 1.149-.834 2.016.405 2.414 0 4.406v2.016l.214.398v.61l-.214 3.211q.262.937 0 1.593.667 2.25.405 4.008-1.406.211-1.836 1.008v2.813q.215 1.5 0 2.601.716.656 1.645.609.191 2.25 0 3.821l.191 9.422q-.096 2.203.214 3.82h7.961V70.913q-.262-1.852-.214-3.211l.214-1.196-.214-1.218v-1.196l.214-1.195v-.609l-.214-.399.214-.797-.214-.398.214-3.211-.214-.82.214-1.407q-.357-2.297-.214-4.008l.214-.609-.214-1.594.214-1.007q-.5-4.758 0-7.829h-7.746zm14.039-.398q-.715.867-1.239 1.219.405 2.718.214 4.429v2.836q-.214 2.321-.214 3.633V79.35q-.048 1.875.214 3.234l1.216.211.834-.398h.81l2.265.398H356.544l.62.188h2.669q1.907-.094 3.289.211.191-.352.406-.399l.214-.609v-1.008l.191-.609v-4.641l.214-.609q-.929-.656-1.859-.797l-1.025.187h-6.364l-.62-.187h-.595l-4.124.187.429-1.593v-.61l.191-1.429v-7.243l.619.399H352.659q1.168.094 2.049 0l.596.187q1.407-.398 2.479-.187l.811-.82.214-.399v-5.648l-.62-.61h-2.669q-2.765-.187-4.934.399l-1.025-.399v-.797l.429-.609v-.82q.191-1.5.191-2.414V50.92q-.096-2.39.214-4.054h.811q1.144.047 2.05.422 1.644.046 2.884-.211 1.549.093 2.455 0 3.289.398 5.339 0l.62-1.008-.215-.821.215-1.406q-.62-1.453 0-2.625-.358-.492-.406-1.008h-1.239q-2.098.118-3.48-.187l-1.025.187h-.834q-1.645-.187-2.861 0h-.619l-1.43-.187-.429.187q-1.431-.304-2.455-.187h-.62l-.62-.211h-4.91zm31.368.234q-2.05.399-3.695.211-.882.539-1.859.61v.586q.31 2.742.214 4.453l.191 2.648-.191.797v2.227q.358 2.789.191 4.453v1.429q-.048 3.071.215 5.063v1.008l-.215.609.215.609q-.167 1.922 0 3.235l-.215 1.008q.167 1.617 0 2.836v1.007l.215.61v9.515h6.793l.619-1.406v-4.055l-.214-4.453-.215-1.429q.382-2.672.215-4.453v-1.407q-.143-3.89.214-6.281l-.214-.609v-1.618q.167-1.875 0-3.234v-2.226l-.215-.821v-1.406l.215-1.008-.215-.609V44.288l.215-.399q-.358-1.875-.215-3.234-1.215-.469-2.049-.61zm8.223.211q-2.503.235-2.455 2.414 1.025 1.922.405 3.844 5.458 2.578 2.67 11.133-2.05.562-2.67 2.039v.609q.357 2.368.214 4.032l.406 1.218q1.692 0 2.669 1.219v.609q.358 1.407.215 2.625v7.899q-.215 3.047.19 5.062h1.049l.596-.211.429.211h.62l.81-.211q2.265.258 3.719 0l.19-.609V66.764q-.31-.75-.405-1.617l-.62-1.406-.405-.211q-1.239-1.219-2.479-1.617v-.821q5.673-4.242 3.719-11.531-.12-8.648-8.867-9.305zm15.374-.445q-.715.867-1.24 1.219.405 2.718.215 4.429v2.836q-.215 2.321-.215 3.633V79.35q-.047 1.875.215 3.234l1.215.211.835-.398h.81l2.264.398h8.82l.619.188h2.67q1.907-.094 3.289.211.191-.352.405-.399l.215-.609v-1.008l.191-.609v-4.641l.214-.609q-.929-.656-1.859-.797l-1.025.187H409.864l-.62-.187h-.596l-4.123.187.429-1.593v-.61l.19-1.429v-7.243l.62.399h1.859q1.168.094 2.05 0l.596.187q1.406-.398 2.479-.187l.81-.82.215-.399v-5.648l-.62-.61H410.484q-2.765-.187-4.934.399l-1.025-.399v-.797l.429-.609v-.82q.19-1.5.19-2.414V50.92q-.095-2.39.215-4.054h.81q1.145.047 2.05.422 1.645.046 2.884-.211 1.55.093 2.455 0 3.29.398 5.34 0l.619-1.008-.214-.821.214-1.406q-.619-1.453 0-2.625-.357-.492-.405-1.008h-1.239q-2.098.118-3.48-.187l-1.025.187h-.835q-1.644-.187-2.86 0h-.619l-1.431-.187-.429.187q-1.43-.304-2.455-.187h-.619l-.62-.211h-4.91zm-188.992.234l-.811.797q.096.305 0 .61l.191 2.836q-.286 1.453-.191 2.625 1.788.093 2.67 1.617v2.203q.262 2.18.191 3.633-.501 2.437-2.861 3.234v2.016q-.095 2.695.191 4.453 10.535-.211 9.868-10.899.667-11.554-9.248-13.125zm-11.894.211q-.787 3.164-.429 5.438V59.03q-.048 2.367.214 4.031l-.214 2.227.214 1.195v8.695q-.095 4.781.215 7.664 4.362.258 7.174-.398l.215-1.43V67.092l-.215-1.406v-2.625l-.19-.398V52.35l-.215-.586.215-.422q0-2.765-.429-4.64.715-3.329 0-6.047l-.62-.399H197.704zm33.536.258q-4.147 1.453-6.483 4.195l-.596 1.383-.214.586q-.262 2.11-.596 3.399v1.382l-.215.61-.214.609v4.781q-.334 3.516 0 5.954l-.191.609q.31.75.191 1.594 0 1.851.429 3.187v.61l.191 2.765q.452 1.149.405 2.016l.214 1.172q.954 2.461 1.192 3.984l.429-.187q2.717 4.078 7.294 3.585l.19-.585q-.262-2.016 0-3.399-.095-1.148 0-1.992l-.405-1.195q-1.478-.539-2.026-1.594-.262-1.899-.19-3.188.095-1.5-.215-2.601l.215-1.383-.215-1.008v-4.359l-.214-2.602q.166-1.687 0-2.789v-.609l.214-.797q-.214-.281-.214-.586v-3.984l.429-.586.19-.797q1.264-.656 1.621-1.805.548-6.07-1.216-6.375zm4.863.399l-.596 1.195q.381 2.39 0 4.195.191.68.191 1.383 1.811 1.336 2.431 3.187V64.42l-.405 1.008.405.586-.191 1.008q.334 3.867.191 6.164-.858 1.453-2.026 2.18v.797q-.501 4.054 1.025 6.984 4.552-1.406 6.864-4.969l.429-2.015.382-1.172q0-2.11.62-3.61v-3.773q.452-3.586.19-5.789l.215-.797-.215-.797v-1.594q-.381-1.593-.19-2.765v-.797l-.191-.797q-.524-1.899-.429-3.399l-.191-.585-.191-.422-.429-3.188q-.81-.844-1.001-1.781-3.146-3.281-6.888-3.984zm18.282-.352q-.191.258-.405.211h-1.621l-1.407.187-.405.985.191 22.054-.191 1.383q.191 1.946 0 3.375.048 2.086 0 3.375v9.938l.596.398.811.188h.81l.81.211H265.707q2.717-.164 4.648.187 1.096-.258 1.811-.586v-.609q.191-3.422-.214-5.555l-.787-.398q-2.884.586-5.053 0-1.621.304-2.837-.188-2.526.586-4.457-.398v-5.18l.215-1.383-.215-1.195V63.389q-.095-2.086.215-3.375l-.406-1.383v-1.383l.191-1.195V54.858q-.286-1.547-.191-2.789l.191-.586q-.191-1.149 0-1.992l-.191-.797q.453-4.711-.405-7.922-2.264-.399-3.837-.211zm23.931-.75q-.715.867-1.24 1.219.405 2.718.215 4.429v2.836q-.215 2.321-.215 3.633V79.35q-.047 1.875.215 3.234l1.215.211.835-.398h.81l2.264.398H291.234l.62.188h2.67q1.907-.094 3.289.211.191-.352.405-.399l.215-.609v-1.008l.19-.609v-4.641l.215-.609q-.93-.656-1.859-.797l-1.025.187H289.59l-.62-.187h-.596l-4.123.187.429-1.593v-.61l.19-1.429v-7.243l.62.399h1.859q1.168.094 2.05 0l.596.187q1.406-.398 2.479-.187l.81-.82.215-.399v-5.648l-.62-.61H290.21q-2.765-.187-4.934.399l-1.025-.399v-.797l.429-.609v-.82q.19-1.5.19-2.414V50.92q-.095-2.39.215-4.054h.81q1.144.047 2.05.422 1.645.046 2.884-.211 1.55.093 2.455 0 3.29.398 5.339 0l.62-1.008-.214-.821.214-1.406q-.62-1.453 0-2.625-.357-.492-.405-1.008h-1.239q-2.098.118-3.48-.187l-1.025.187h-.835q-1.644-.187-2.86 0h-.62l-1.43-.187-.429.187q-1.43-.304-2.455-.187h-.62l-.619-.211h-4.91zM136.971 82.913l4.052-.586.214-1.594.215-.399q-1.001-4.476.024-7.968-.358-.493-.405-.985l-.406-.797-.19-1.007-.811-.985v-.797l-.596-.609-.214-.398-1.001-2.391-.811-1.383-.19-.797q-1.907-2.601-2.408-5.39-.715-.797-1.001-1.594l-.81-.211v.609q-.429 2.18-.238 3.774-.096 1.593.214 2.789l-.214.797q.143.609 0 1.195.286 1.336.19 2.391.239 1.593-.024 2.789.31 1.5 0 2.578.31 1.195.191 2.203v4.758l-.024.609v2.391q1.931 1.336 4.243 1.008zm16.804-.54q.214-.351.405-.398l.024-2.391.191-.586-.191-.398.024-4.992q-.31-.75-.405-1.383l-.811-1.195q-.548-.961-.596-1.594-.953-1.148-1.215-2.391-1.24-1.945-1.812-3.398l-.596-1.195-.405-1.196-.596-1.195-.405-.797-.596-1.195-.62-1.196-.381-1.007-.405-1.196q-.405-.632-.596-1.195l-.405-.586v-.609q-.906-1.149-1.216-2.18l-.405-1.008q-.191-.304-.191-.586l-.405-.609q-.548-1.149-.81-1.992-.191-.305-.191-.61-.262-.187-.215-.398-1.501-2.438-2.002-3.984l-.596-.188h-.81l-1.43.375q-2.122-.492-3.647 0v1.383q.143 1.195 0 2.203l.381 1.992q1.168 1.43 1.407 2.789l.214.399.405.398q.596 1.149 1.192 1.992v.586q1.311 1.5 1.621 3l.596 1.008.62.984.595 1.008v.586q1.145 1.453 1.597 3 .263.188.215.399.286.586.405 1.195 1.144 1.195 1.406 2.578l.596.609.406.797v.61q1.096 1.429 1.406 2.789l.405.586.191.609q1.049 1.547 1.406 2.977l.405.398.191.797q1.573 2.555 2.026 4.594 1.811 1.289 3.623 1.007zm.477-18.515l.214-.985-.19-2.601-.191-2.578V54.506q-.239-.703-.191-1.593.095-1.149 0-1.993l.024-3.375-.215-.609q.477-3.516-.166-5.977-.358-.187-.406-.398h-.619q-2.789.352-4.648.187l-1.216.188q-.119 1.148 0 1.992-.381 1.992-.214 3.399l-.024 1.593q.214.68.214 1.383l.596.61.191.796.62.586.19 1.008.191.797q.31.234.405.586l.405.609q.549 1.149.811 1.993l.405.398.191.586.405.398.81 2.016.811 1.781-.024 1.781 1.621.61zm14.11-23.344q-4.147 1.453-6.483 4.195l-.596 1.383-.214.586q-.263 2.11-.596 3.399v1.382l-.215.61-.214.609v4.781q-.334 3.516 0 5.954l-.191.609q.31.75.191 1.594 0 1.851.429 3.187v.61l.19 2.765q.453 1.149.406 2.016l.214 1.172q.954 2.461 1.192 3.984l.429-.187q2.717 4.078 7.294 3.585l.19-.585q-.262-2.016 0-3.399-.095-1.148 0-1.992l-.405-1.195q-1.478-.539-2.026-1.594-.262-1.899-.191-3.188.096-1.5-.214-2.601l.214-1.383-.214-1.008v-4.359l-.215-2.602q.167-1.687 0-2.789v-.609l.215-.797q-.215-.281-.215-.586v-3.984l.429-.586.191-.797q1.263-.656 1.621-1.805.548-6.07-1.216-6.375zm4.863.399l-.596 1.195q.381 2.39 0 4.195.191.68.191 1.383 1.811 1.336 2.431 3.187V64.42l-.405 1.008.405.586-.191 1.008q.334 3.867.191 6.164-.858 1.453-2.026 2.18v.797q-.501 4.054 1.025 6.984 4.552-1.406 6.864-4.969l.429-2.015.382-1.172q0-2.11.619-3.61v-3.773q.453-3.586.191-5.789l.215-.797-.215-.797v-1.594q-.381-1.593-.191-2.765v-.797l-.19-.797q-.525-1.899-.429-3.399l-.191-.585-.191-.422-.429-3.188q-.81-.844-1.001-1.781-3.146-3.281-6.888-3.984z"/>
        <path fill="#7A7A7A" fill-rule="evenodd" d="M317.508 35.882q-2.508.093-4.219 1.007v22.477q-.141 2.695.211 4.617-.398 2.156 0 3.61l-.211.609.211 2.391q-.656 4.781.188 8.039l1.804.398q.305-.211.61-.211.656-.094 1.218 0 1.899-.234 3.399.211l.609-.398v-.61l.188-.609q-.235-3.047 0-5.016-.352-1.593-.188-2.789v-7.64q1.5.093 1.805-1.196V55.944q-.445-.586-.61-1.195-.609.047-1.195-.211l.188-1.406q.117-1.594-.188-2.789.047-.516 0-.821l.188-.586q-.352-1.453 0-2.625-.399-1.945-.188-3.398v-2.625l-.211-4.008q-2.203-.398-3.609-.398zm11.25.398q-.61 1.149-.82 2.016.398 2.414 0 4.406v2.016l.21.398v.609l-.21 3.211q.257.938 0 1.594.656 2.25.398 4.008-1.383.211-1.805 1.008v2.812q.211 1.5 0 2.602.703.656 1.617.609.188 2.25 0 3.82l.188 9.422q-.094 2.203.211 3.821H336.375V66.983q-.258-1.851-.211-3.211l.211-1.195-.211-1.219v-1.195l.211-1.195v-.61l-.211-.398.211-.797-.211-.399.211-3.21-.211-.821.211-1.406q-.352-2.297-.211-4.008l.211-.609-.211-1.594.211-1.008q-.492-4.758 0-7.828h-7.617zm13.805-.398q-.704.867-1.219 1.218.398 2.719.211 4.43v2.836q-.211 2.32-.211 3.633v27.422q-.047 1.875.211 3.234l1.195.211.82-.398h.797l2.227.398h8.672l.609.188h2.625q1.875-.094 3.234.21.188-.351.399-.398l.211-.609v-1.008l.187-.61v-4.64l.211-.61q-.914-.656-1.828-.796l-1.008.187H353.648l-.609-.187h-.586l-4.055.187.422-1.594v-.609l.188-1.43v-7.242l.609.399H351.445q1.149.093 2.016 0l.586.187q1.383-.398 2.437-.187l.797-.821.211-.398v-5.649l-.609-.609h-2.625q-2.719-.188-4.852.398l-1.008-.398v-.797l.422-.609V50.6q.188-1.5.188-2.414V46.991q-.094-2.391.211-4.055h.797q1.125.047 2.015.422 1.617.047 2.836-.211 1.524.094 2.414 0 3.235.399 5.25 0l.61-1.008-.211-.82.211-1.406q-.61-1.453 0-2.625-.352-.492-.399-1.008h-1.219q-2.062.117-3.421-.187l-1.008.187h-.821q-1.617-.187-2.812 0h-.609l-1.407-.187-.422.187q-1.406-.305-2.414-.187H348l-.609-.211h-4.828zm30.843.234q-2.015.398-3.633.211-.867.539-1.828.609v.586q.305 2.742.211 4.453l.188 2.649-.188.797v2.226q.352 2.789.188 4.453v1.43q-.047 3.07.211 5.063V59.6l-.211.61.211.609q-.164 1.922 0 3.235l-.211 1.007q.164 1.618 0 2.836v1.008l.211.609v9.516h6.679l.61-1.406v-4.055l-.211-4.453-.211-1.43q.375-2.672.211-4.453v-1.406q-.141-3.891.211-6.281l-.211-.61v-1.617q.164-1.875 0-3.234v-2.227l-.211-.82v-1.406l.211-1.008-.211-.61V40.358l.211-.398q-.352-1.875-.211-3.235-1.195-.468-2.016-.609zm8.086.211q-2.461.234-2.414 2.414 1.008 1.922.399 3.844 5.367 2.578 2.625 11.133-2.016.562-2.625 2.039v.609q.351 2.367.211 4.031l.398 1.219q1.664 0 2.625 1.219v.609q.352 1.406.211 2.625v7.899q-.211 3.046.187 5.062h1.032l.586-.211.421.211h.61l.797-.211q2.226.258 3.656 0l.187-.609V62.835q-.304-.75-.398-1.617l-.609-1.407-.399-.211q-1.219-1.218-2.437-1.617v-.82q5.578-4.242 3.656-11.531-.117-8.649-8.719-9.305zm15.117-.445q-.703.867-1.218 1.218.398 2.719.211 4.43v2.836q-.211 2.32-.211 3.633v27.422q-.047 1.875.211 3.234l1.195.211.82-.398h.797l2.227.398h8.672l.609.188h2.625q1.875-.094 3.234.21.188-.351.399-.398l.211-.609v-1.008l.187-.61v-4.64l.211-.61q-.914-.656-1.828-.796l-1.008.187H407.695l-.609-.187h-.586l-4.055.187.422-1.594v-.609l.188-1.43v-7.242l.609.399H405.492q1.149.093 2.016 0l.586.187q1.383-.398 2.437-.187l.797-.821.211-.398v-5.649l-.609-.609h-2.625q-2.719-.188-4.852.398l-1.008-.398v-.797l.422-.609V50.6q.188-1.5.188-2.414V46.991q-.094-2.391.211-4.055h.797q1.125.047 2.015.422 1.617.047 2.836-.211 1.524.094 2.414 0 3.235.399 5.25 0l.61-1.008-.211-.82.211-1.406q-.61-1.453 0-2.625-.352-.492-.399-1.008h-1.219q-2.062.117-3.422-.187l-1.007.187h-.821q-1.617-.187-2.812 0h-.61l-1.406-.187-.422.187q-1.406-.305-2.414-.187h-.609l-.609-.211H396.609zm-185.836.234l-.796.797q.093.305 0 .609l.187 2.836q-.281 1.453-.187 2.625 1.757.094 2.625 1.617v2.204q.257 2.179.187 3.632-.492 2.438-2.812 3.235v2.015q-.094 2.696.187 4.453 10.359-.21 9.703-10.898.656-11.555-9.094-13.125zm-11.695.211q-.773 3.164-.422 5.437V55.1q-.047 2.368.211 4.032l-.211 2.226.211 1.196v8.695q-.094 4.781.211 7.664 4.289.258 7.055-.399l.211-1.429V63.163l-.211-1.406v-2.625l-.188-.399V48.421l-.211-.586.211-.422q0-2.766-.422-4.641.704-3.328 0-6.047l-.609-.398h-5.836zm32.977.258q-4.078 1.453-6.375 4.195l-.586 1.383-.211.586q-.258 2.109-.586 3.398v1.383l-.211.609-.211.61v4.781q-.328 3.516 0 5.953l-.187.61q.304.75.187 1.593 0 1.852.422 3.188v.609l.187 2.766q.446 1.148.399 2.015l.211 1.172q.937 2.461 1.172 3.985l.422-.188q2.671 4.078 7.171 3.586l.188-.586q-.258-2.015 0-3.398-.094-1.149 0-1.992l-.399-1.196q-1.453-.539-1.992-1.593-.258-1.899-.187-3.188.094-1.5-.211-2.602l.211-1.382-.211-1.008v-4.36l-.211-2.601q.164-1.688 0-2.789v-.61l.211-.796q-.211-.282-.211-.586v-3.985l.422-.586.187-.797q1.242-.656 1.594-1.804.539-6.071-1.195-6.375zm4.781.398l-.586 1.196q.375 2.39 0 4.195.188.68.188 1.383 1.781 1.336 2.39 3.187v13.547l-.398 1.008.398.586-.187 1.008q.328 3.867.187 6.164-.844 1.453-1.992 2.179v.797q-.492 4.055 1.008 6.985 4.476-1.407 6.75-4.969l.422-2.016.375-1.172q0-2.109.609-3.609v-3.773q.445-3.586.188-5.79l.21-.796-.21-.797v-1.594q-.375-1.594-.188-2.766v-.797l-.187-.796q-.516-1.899-.422-3.399l-.188-.586-.187-.422-.422-3.187q-.797-.844-.985-1.781-3.093-3.282-6.773-3.985zm17.977-.351q-.188.257-.399.211h-1.594l-1.382.187-.399.984.188 22.055-.188 1.383q.188 1.945 0 3.375.047 2.086 0 3.375v9.937l.586.399.797.187h.797l.797.211h11.929q2.672-.164 4.571.188 1.078-.258 1.781-.586v-.609q.187-3.422-.211-5.555l-.773-.399q-2.836.586-4.969 0-1.594.305-2.789-.187-2.485.586-4.383-.399V66.21l.211-1.383-.211-1.195V59.46q-.094-2.086.211-3.375l-.399-1.383v-1.383l.188-1.195V50.929q-.281-1.547-.188-2.79l.188-.585q-.188-1.149 0-1.993l-.188-.797q.446-4.71-.398-7.921-2.227-.399-3.773-.211zm23.531-.75q-.703.867-1.219 1.218.398 2.719.211 4.43v2.836q-.211 2.32-.211 3.633v27.422q-.047 1.875.211 3.234l1.195.211.821-.398h.796l2.227.398h8.672l.609.188h2.625q1.875-.094 3.235.21.187-.351.398-.398l.211-.609v-1.008l.188-.61v-4.64l.21-.61q-.914-.656-1.828-.796l-1.007.187h-6.258l-.61-.187h-.586l-4.054.187.422-1.594v-.609l.187-1.43v-7.242l.609.399H287.227q1.148.093 2.015 0l.586.187q1.383-.398 2.438-.187l.797-.821.21-.398v-5.649l-.609-.609h-2.625q-2.719-.188-4.851.398l-1.008-.398v-.797l.422-.609V50.6q.187-1.5.187-2.414V46.991q-.094-2.391.211-4.055h.797q1.125.047 2.016.422 1.617.047 2.835-.211 1.524.094 2.415 0 3.234.399 5.25 0l.609-1.008-.211-.82.211-1.406q-.609-1.453 0-2.625-.352-.492-.399-1.008h-1.218q-2.063.117-3.422-.187l-1.008.187h-.82q-1.617-.187-2.813 0h-.609l-1.406-.187-.422.187q-1.407-.305-2.414-.187h-.61l-.609-.211H278.344zM139.359 78.983l3.985-.586.211-1.593.211-.399q-.985-4.476.023-7.969-.351-.492-.398-.984l-.399-.797-.187-1.008-.797-.984v-.797l-.586-.609-.211-.399-.984-2.39-.797-1.383-.188-.797q-1.875-2.602-2.367-5.391-.703-.797-.984-1.593l-.797-.211v.609q-.422 2.18-.235 3.773-.093 1.594.211 2.789l-.211.797q.141.61 0 1.196.282 1.336.188 2.39.234 1.594-.024 2.789.305 1.5 0 2.578.305 1.196.188 2.204v4.757l-.023.61v2.39q1.898 1.336 4.171 1.008zm16.524-.539q.211-.351.398-.398l.024-2.391.187-.586-.187-.398.023-4.992q-.305-.75-.398-1.383l-.797-1.196q-.539-.961-.586-1.593-.938-1.149-1.195-2.391-1.219-1.945-1.782-3.398l-.586-1.196-.398-1.195-.586-1.195-.398-.797-.586-1.196-.61-1.195-.375-1.008-.398-1.195q-.399-.633-.586-1.195l-.399-.586v-.61q-.89-1.148-1.195-2.179l-.398-1.008q-.188-.305-.188-.586l-.398-.609q-.539-1.149-.797-1.993-.188-.304-.188-.609-.257-.187-.211-.398-1.476-2.438-1.968-3.985l-.586-.187h-.797l-1.406.375q-2.086-.492-3.586 0v1.383q.14 1.195 0 2.203l.375 1.992q1.148 1.43 1.383 2.789l.21.398.399.399q.586 1.148 1.172 1.992v.586q1.289 1.5 1.594 3l.585 1.008.61.984.586 1.008v.586q1.125 1.453 1.57 3 .258.187.211.398.281.586.398 1.196 1.125 1.195 1.383 2.578l.586.609.399.797v.609q1.078 1.43 1.382 2.789l.399.586.187.61q1.032 1.547 1.383 2.976l.399.399.187.797q1.547 2.554 1.992 4.593 1.782 1.289 3.563 1.008zm.469-18.515l.211-.985-.188-2.601-.187-2.579V50.577q-.235-.703-.188-1.594.094-1.148 0-1.992l.023-3.375-.21-.609q.468-3.516-.165-5.977-.351-.187-.398-.398h-.609q-2.743.351-4.571.187l-1.195.188q-.117 1.148 0 1.992-.375 1.992-.211 3.398l-.023 1.594q.211.68.211 1.383l.586.609.187.797.609.586.188 1.008.187.797q.305.234.399.586l.398.609q.539 1.148.797 1.992l.399.399.187.586.399.398.796 2.016.797 1.781-.023 1.781 1.594.61zm13.875-23.344q-4.079 1.453-6.375 4.195l-.586 1.383-.211.586q-.258 2.109-.586 3.398v1.383l-.211.609-.211.61v4.781q-.328 3.516 0 5.953l-.188.61q.305.75.188 1.593 0 1.852.422 3.188v.609l.187 2.766q.446 1.148.399 2.015l.211 1.172q.937 2.461 1.172 3.985l.421-.188q2.672 4.078 7.172 3.586l.188-.586q-.258-2.015 0-3.398-.094-1.149 0-1.992l-.399-1.196q-1.453-.539-1.992-1.593-.258-1.899-.187-3.188.093-1.5-.211-2.602l.211-1.382-.211-1.008v-4.36l-.211-2.601q.164-1.688 0-2.789v-.61l.211-.796q-.211-.282-.211-.586v-3.985l.422-.586.187-.797q1.242-.656 1.594-1.804.539-6.071-1.195-6.375zm4.781.398l-.586 1.196q.375 2.39 0 4.195.187.68.187 1.383 1.782 1.336 2.391 3.187v13.547l-.398 1.008.398.586-.187 1.008q.328 3.867.187 6.164-.844 1.453-1.992 2.179v.797q-.492 4.055 1.008 6.985 4.476-1.407 6.75-4.969l.422-2.016.375-1.172q0-2.109.609-3.609v-3.773q.445-3.586.187-5.79l.211-.796-.211-.797v-1.594q-.375-1.594-.187-2.766v-.797l-.188-.796q-.515-1.899-.421-3.399l-.188-.586-.187-.422-.422-3.187q-.797-.844-.985-1.781-3.093-3.282-6.773-3.985z"/>
    </g>
</svg>
